<svg width="1440" height="780" viewBox="0 0 1440 780" fill="none" xmlns="http://www.w3.org/2000/svg">
<g clip-path="url(#clip0_205_2)">
<path opacity="0.52" d="M1439 53.9089L1439 47.8879C1439 47.8879 1440.93 50.4499 1439 53.9089L1439 779.366L943.225 779.366C679.605 779.367 617.057 779.366 559.229 779.366L441.467 779.366L1 779.367L0.999936 47.8881C0.999936 47.8881 241.98 -47 864.498 32.332C1362.23 95.7619 1431.31 67.7059 1439 53.9089Z" fill="url(#paint0_linear_205_2)"/>
<path opacity="0.52" d="M1440 780L1440 48.5237C1440 48.5237 841.08 32.9678 621.343 13.0758C401.61 -6.81517 1.9898 48.5239 1.9898 48.5239L1.98987 780L442.464 780L1112.64 780L1440 780Z" fill="url(#paint1_linear_205_2)"/>
<path d="M1438.01 779.442L1438.01 47.965C1438.01 47.965 1348.82 78.7419 1085.73 47.964C822.644 17.186 -0.000186018 47.9651 -0.000186018 47.9651L-0.00012207 779.443L440.471 779.442L1084.23 779.442L1438.01 779.442Z" fill="url(#paint2_linear_205_2)"/>
</g>
<defs>
<linearGradient id="paint0_linear_205_2" x1="731.01" y1="-3.99602" x2="731.01" y2="779.37" gradientUnits="userSpaceOnUse">
<stop stop-color="#B38DD8"/>
<stop offset="0.247237" stop-color="#C6ABE3"/>
<stop offset="0.437737" stop-color="#D6C3EB"/>
<stop offset="0.691737" stop-color="#EAE2F5"/>
<stop offset="0.865303" stop-color="#F5F3FB" stop-opacity="0.76"/>
<stop offset="1" stop-color="#F6F5FC" stop-opacity="0"/>
</linearGradient>
<linearGradient id="paint1_linear_205_2" x1="720.997" y1="8.76175" x2="720.997" y2="780" gradientUnits="userSpaceOnUse">
<stop stop-color="#B38DD8"/>
<stop offset="0.247237" stop-color="#C6ABE3"/>
<stop offset="0.437737" stop-color="#D6C3EB"/>
<stop offset="0.691737" stop-color="#EAE2F5"/>
<stop offset="0.865303" stop-color="#F5F3FB" stop-opacity="0.76"/>
<stop offset="1" stop-color="#F6F5FC" stop-opacity="0"/>
</linearGradient>
<linearGradient id="paint2_linear_205_2" x1="719.003" y1="34.285" x2="719.003" y2="779.442" gradientUnits="userSpaceOnUse">
<stop stop-color="#B38DD8"/>
<stop offset="0.247237" stop-color="#C6ABE3"/>
<stop offset="0.437737" stop-color="#D6C3EB"/>
<stop offset="0.691737" stop-color="#EAE2F5"/>
<stop offset="0.865303" stop-color="#F5F3FB" stop-opacity="0.76"/>
<stop offset="1" stop-color="#F6F5FC" stop-opacity="0"/>
</linearGradient>
<clipPath id="clip0_205_2">
<rect width="1440" height="780" fill="white" transform="translate(1440 780) rotate(180)"/>
</clipPath>
</defs>
</svg>
